<svg viewBox="0 0 40 26" xmlns="http://www.w3.org/2000/svg"><g fill-rule="evenodd"><path d="m34.34 7.85a1.35 1.35 0 0 0 -1.22.75l-2.24 5.14-.81-5.14a.87.87 0 0 0 -.94-.75h-2.84l2.43 8.54a1.39 1.39 0 0 1 0 .54 1.62 1.62 0 0 1 -1.52 1.29h-1.57c-.41 0-.67.25-.8.82l-.36 2.12h2.81a5 5 0 0 0 4.32-2.77l5.62-10.54z" fill="#323e48"/><path d="m6.74 5.3c.84 0 1.25.33 1.1 1.18l-.24 1.37h1.93l-.43 2.41h-1.93l-.52 3c-.19 1 .84 1.18 1.43 1.18h.29l-.47 2.66c-.15 0-.3 0-.62 0-1.46 0-4.23-.39-3.69-3.48l.6-3.39h-1.41l.43-2.41h1.39l.45-2.52z" fill="#323e48"/><path d="m23 8-.49 2.81a1.88 1.88 0 0 1 -.63 3.54l-.49 2.81h.26a4.68 4.68 0 0 0 1.35-9.16" fill="#00adbb"/><path d="m20.75 14.12a1.88 1.88 0 0 1 .62-3.54l.5-2.81h-.27a4.69 4.69 0 0 0 -1.35 9.17z" fill="#00adbb"/><path d="m10.64 7.85h1.66c.84 0 1.25.33 1.1 1.18l-.18 1a4 4 0 0 1 3.33-2.28 2.29 2.29 0 0 1 .35 0l-.53 3a2.81 2.81 0 0 0 -.62-.06 2.86 2.86 0 0 0 -2.66 1.61 5 5 0 0 0 -.38 1.25l-.6 3.45h-3.11z" fill="#323e48"/></g></svg>